<?xml version="1.0" encoding="utf-8"?>
<!-- Generator: Adobe Illustrator 25.2.0, SVG Export Plug-In . SVG Version: 6.00 Build 0)  -->
<svg version="1.1" id="Layer_1" xmlns="http://www.w3.org/2000/svg" xmlns:xlink="http://www.w3.org/1999/xlink" x="0px" y="0px"
	 viewBox="0 0 128.1 128" style="enable-background:new 0 0 128.1 128;" xml:space="preserve">
<style type="text/css">
	.st0{fill:#231F20;}
</style>
<g id="XMLID_75_" transform="translate(0 -0.29)">
	<g id="XMLID_724_" transform="translate(0 0.29)">
		<path id="XMLID_816_" class="st0" d="M122.9,1.4c-5-2.9-11.4-1.2-14.4,3.8L94.2,30.1H63.3c-1.4,0-2.5,1.1-2.5,2.5
			c0,1.4,1.1,2.5,2.5,2.5c0,0,0,0,0,0h28l-10.4,18H22.5c-1.4,0-2.5,1.1-2.5,2.5c0,1.4,1.1,2.5,2.5,2.5c0,0,0,0,0,0h55.5l-5.8,10
			H22.5c-1.4,0-2.5,1.1-2.5,2.5c0,1.4,1.1,2.5,2.5,2.5c0,0,0,0,0,0h48.7l-1.1,10H22.5c-1.4,0-2.5,1.1-2.5,2.5c0,1.4,1.1,2.5,2.5,2.5
			c0,0,0,0,0,0h47.1l-0.1,1.2c-0.1,1.4,0.8,2.6,2.2,2.8c0.6,0.1,1.2-0.1,1.7-0.5l16-11.7c0.3-0.2,0.5-0.5,0.7-0.8l19.5-33.8v48.5
			c0,5.6-4.6,10.2-10.2,10.2h-58c-0.9,0-1.7,0.5-2.2,1.3l-8.8,15.2l-8.8-15.2c-0.4-0.8-1.3-1.3-2.2-1.3h-4.4
			C9.6,104.1,5,99.5,5,93.9V45.2c0-5.6,4.6-10.2,10.2-10.2h25.6c1.4,0,2.5-1.1,2.5-2.5c0-1.4-1.1-2.5-2.5-2.5c0,0,0,0,0,0H15.2
			C6.8,30.1,0,36.9,0,45.2v48.7c0,8.4,6.8,15.2,15.2,15.2h3l10.2,17.7c0.7,1.2,2.2,1.6,3.4,0.9c0.4-0.2,0.7-0.5,0.9-0.9l10.2-17.7
			h56.6c8.4,0,15.2-6.8,15.2-15.2V45.2c0-2.1-0.5-4.3-1.3-6.2l13.4-23.3C129.6,10.7,127.9,4.3,122.9,1.4z M120.4,5.7
			c2.6,1.5,3.5,4.9,2,7.5l-1.4,2.5l-9.5-5.5l1.4-2.5C114.4,5.1,117.8,4.2,120.4,5.7L120.4,5.7z M76.2,74l7.2,4.2l-8.3,6.1L76.2,74z
			 M87,74.5L77.5,69l31.4-54.4l9.5,5.5L87,74.5z"/>
		<path id="XMLID_819_" class="st0" d="M52.1,35.1c1.4,0,2.5-1.1,2.5-2.5c0-1.4-1.1-2.5-2.5-2.5c-1.4,0-2.5,1.1-2.5,2.5
			c0,0.7,0.3,1.3,0.7,1.8C50.8,34.8,51.4,35.1,52.1,35.1z"/>
	</g>
</g>
</svg>
