<svg xmlns="http://www.w3.org/2000/svg" width="46" height="46" viewBox="0 0 46 46">
    <g fill="none" fill-rule="evenodd">
        <circle cx="19.5" cy="19.5" r="19.5" fill="#28ACE8" fill-opacity=".2"/>
        <g stroke="#161637" stroke-linecap="round" stroke-linejoin="round" stroke-width="1.4">
            <path d="M.7 41.3c0-3.172.255-6.62 6.125-9.1M.7 41.3c3.172 0 6.27-.605 8.75-6.475M14.7 16.1L7.7 16.1 2.1 23.1 9.1 23.1" transform="translate(4 4)"/>
            <path d="M12.075 30.45c1.823 1.823 4.375 3.5 4.375 3.5C39.2 17.18 41.3 9.45 41.3.7 32.55.7 24.47 2.45 7.7 25.2c0 0 1.677 2.552 3.5 4.375l.875.875h0zM14.7 33.075L11.2 35.7s-1.386-.511-2.625-1.75l-.875-.875c-1.239-1.239-1.75-2.625-1.75-2.625l2.625-3.5" transform="translate(4 4)"/>
            <path d="M25.9 26.6L25.9 34.3 18.9 38.5 18.9 32.2M32.9 13.3c0 2.32-1.88 4.2-4.2 4.2-2.32 0-4.2-1.88-4.2-4.2 0-2.32 1.88-4.2 4.2-4.2 2.32 0 4.2 1.88 4.2 4.2h0z" transform="translate(4 4)"/>
        </g>
    </g>
</svg>
