<svg xmlns="http://www.w3.org/2000/svg" width="46" height="46" viewBox="0 0 46 46">
    <g fill="none" fill-rule="evenodd">
        <circle cx="19.5" cy="19.5" r="19.5" fill="#28ACE8" fill-opacity=".2"/>
        <g>
            <path stroke="#161637" stroke-linecap="round" stroke-linejoin="round" stroke-width="1.4" d="M41.3 19.654c0 1.902-1.567 3.447-3.5 3.447h-21c-1.933 0-3.5-1.544-3.5-3.447V4.146c0-1.902 1.567-3.445 3.5-3.445h21c1.933 0 3.5 1.543 3.5 3.445v15.508h0zM13.3 6.3L41.3 6.3M.7 38.5h5.6s3.107-10.199 3.5-14.7C8.414 22.487.7 21.7.7 21.7v16.8h0zM28.7 33.775l7-2.275c2.218-.554 4.578.755 5.6 2.8l-9.8 4.438c-7.291 2.989-7.903 3.062-11.375 1.75L7 36.4" transform="translate(4 4)"/>
            <path stroke="#161637" stroke-linecap="round" stroke-linejoin="round" stroke-width="1.4" d="M9.8 25.9l15.4 3.5c2.337.584 3.5 1.69 3.5 4.1v.275l-2.355.59c-.754.187-1.54.205-2.303.054L16.45 32.9" transform="translate(4 4)"/>
            <path fill="#161637" d="M18.2 3.5c0 .386-.314.7-.7.7-.386 0-.7-.314-.7-.7 0-.386.314-.7.7-.7.386 0 .7.314.7.7M21 3.5c0 .386-.314.7-.7.7-.386 0-.7-.314-.7-.7 0-.386.314-.7.7-.7.386 0 .7.314.7.7M23.8 3.5c0 .386-.314.7-.7.7-.386 0-.7-.314-.7-.7 0-.386.314-.7.7-.7.386 0 .7.314.7.7" transform="translate(4 4)"/>
        </g>
    </g>
</svg>
