<svg xmlns="http://www.w3.org/2000/svg" width="46" height="46" viewBox="0 0 46 46">
    <g fill="none" fill-rule="evenodd">
        <circle cx="19.5" cy="19.5" r="19.5" fill="#28ACE8" fill-opacity=".2"/>
        <g stroke="#161637" stroke-linecap="round" stroke-linejoin="round" stroke-width="1.4">
            <path d="M15.207 19.552c1.738 3.415 3.826 5.492 7.241 7.241l2.39-2.543c.326-.326.808-.435 1.231-.29 1.351.446 2.365 1.385 3.863 1.385.663 0 1.206.543 1.206 1.206v4.829c0 .663-.543 1.206-1.206 1.206-11.333 0-20.518-10.633-20.518-21.966 0-.663.543-1.206 1.206-1.206h4.829c.663 0 1.206.543 1.206 1.206 0 1.51.944 3.96 1.39 5.311.134.423.037.894-.3 1.231l-2.538 2.39h0z" transform="translate(4 4)"/>
            <path d="M31.138 28.241c3.451-.226 7.999 1.273 6.517 4.345h-.013c-3.664 5.253-9.753 8.69-16.642 8.69C9.802 41.276.724 32.198.724 21S9.802.724 21 .724 41.276 9.802 41.276 21" transform="translate(4 4)"/>
        </g>
    </g>
</svg>
